PathFileType	4	(X/Y/Z)	C:\Users\WrightLab\Desktop\Jo\P5V25.trc
DataRate	CameraRate	NumFrames	NumMarkers	Units	OrigDataRate	OrigDataStartFrame	OrigNumFrames
100.00	100.00	       20	19	mm	100.00	692	       790
Frame#	Time	Headset_Front			Headset_Back			Headset_Left			Headset_Right			Left_Shoulder			Right_Shoulder			Sternum			C7			Left Elbow			Right Elbow			Left Wrist			Right Wrist			Left ASIS			Right ASIS			S2			Left Knee			Right Knee			Left Ankle			Right Ankle			
		X1	Y1	Z1	X2	Y2	Z2	X3	Y3	Z3	X4	Y4	Z4	X5	Y5	Z5	X6	Y6	Z6	X7	Y7	Z7	X8	Y8	Z8	X9	Y9	Z9	X10	Y10	Z10	X11	Y11	Z11	X12	Y12	Z12	X13	Y13	Z13	X14	Y14	Z14	X15	Y15	Z15	X16	Y16	Z16	X17	Y17	Z17	X18	Y18	Z18	X19	Y19	Z19	

692	6.910	-125.44081	1687.89404	-636.47729										-42.33850	1499.21375	-717.87177	-426.35727	1446.04846	-596.64966	-214.58510	1311.47290	-581.79614	-279.57486	1513.81604	-777.81024	-64.14486	1410.59692	-652.93890	-547.46204	1176.58154	-640.76111	47.10359	1253.27014	-678.56580	-471.07208	1032.87830	-466.08636	-68.69756	925.77319	-614.12054	-348.67361	935.95966	-548.87482	-229.90753	960.99707	-840.63342	-25.92716	505.19687	-558.71295	-410.80310	486.36798	-602.59161	-74.41401	150.23576	-806.22968	-379.21252	84.48918	-702.73657	
693	6.920	-124.89005	1688.28186	-642.08752										-41.72440	1499.29419	-722.15955	-425.46469	1446.35938	-601.47180	-215.65599	1310.94922	-587.97626	-278.46826	1513.52856	-782.60309	-63.86172	1410.43152	-657.28900	-547.57837	1177.67773	-647.40088	47.90646	1254.21423	-682.82788	-472.84235	1032.26794	-472.43393	-67.96908	926.69934	-616.31470	-349.21017	936.44244	-553.24500	-229.36617	960.41785	-843.19800	-28.36990	503.13504	-566.07874	-410.14966	486.68390	-604.76447	-73.81765	152.48082	-822.79895	-379.12869	84.38000	-703.22913	
694	6.930	-124.11684	1688.24292	-647.30768										-41.07602	1499.36072	-726.80688	-424.96039	1446.48853	-607.27533	-214.56917	1312.94019	-591.08185	-277.42288	1513.01794	-787.65967	-63.13205	1410.68274	-661.18994	-547.26941	1177.91724	-653.81384	48.16719	1253.79236	-686.37152	-473.12875	1031.81958	-478.31339	-68.08974	927.18176	-618.08667	-347.74243	937.15717	-556.17902	-228.33507	959.92432	-846.28937	-27.02358	502.29834	-572.88098	-409.64014	487.63318	-605.07904	-73.13923	154.42525	-838.13940	-379.19516	84.48829	-702.73218	
695	6.940	-123.36265	1688.68958	-652.54913										-40.03192	1498.91248	-730.32593	-424.93643	1446.83191	-612.25592	-213.71909	1312.82935	-593.62915	-276.09674	1512.68726	-792.75677	-61.54930	1411.29993	-665.40302	-546.77887	1177.59912	-659.63831	48.11649	1252.37817	-689.04340	-473.20221	1031.39465	-484.18872	-66.78646	927.52161	-620.20648	-347.28564	937.93787	-558.16656	-227.36937	959.54633	-849.40637	-29.51568	500.22269	-580.03235	-409.21072	487.87778	-606.67389	-70.45347	156.81453	-853.15680	-378.60617	84.20168	-703.32220	
696	6.950	-122.35598	1688.63611	-657.99158										-39.22088	1499.08472	-734.85974	-424.98251	1448.19678	-617.95074	-211.56267	1313.27124	-596.93347	-274.83908	1512.04163	-797.54523	-60.83049	1411.62024	-669.98987	-545.41925	1178.04517	-665.33624	50.62899	1254.17700	-692.70233	-473.61200	1031.36597	-489.95816	-67.47553	927.59131	-621.96741	-347.37222	937.94189	-561.65686	-226.46617	959.33820	-852.36621	-31.07740	498.81323	-587.79785	-408.79123	488.25278	-607.98712	-68.15814	157.84985	-868.91882	-378.57880	84.21638	-703.31915	
697	6.960	-121.28964	1688.64233	-662.93811										-37.96664	1498.60193	-738.52533	-422.86728	1447.76062	-622.47076	-212.49582	1313.40186	-602.54608	-273.46161	1511.64478	-802.72321	-60.99620	1410.67224	-673.99805	-544.84418	1178.65234	-671.55054	49.90361	1253.41589	-696.39001	-473.69244	1030.75220	-496.02573	-66.74060	927.77020	-624.45392	-346.98547	938.87256	-564.27820	-225.63777	958.82336	-855.08929	-32.33595	497.49075	-594.43445	-409.00137	488.38803	-609.41144	-67.83154	159.08806	-881.40369	-378.56998	84.20914	-703.31531	
698	6.970	-120.04762	1688.60535	-668.74084													-422.88403	1448.07324	-627.62866	-211.27283	1314.45691	-605.55103	-272.12613	1511.16919	-807.67139	-59.59232	1411.48438	-678.72180	-542.99591	1178.27454	-678.04205	52.11668	1253.76501	-699.27368	-474.22250	1030.96021	-502.26077	-66.55109	928.01605	-626.61572	-346.10394	940.41541	-566.52576	-224.67416	958.22162	-858.40399	-34.21621	496.43533	-602.15625	-409.22202	488.39099	-610.16174	-65.20877	159.54184	-895.80487	-378.57617	84.21397	-703.31793	
699	6.980	-118.73145	1688.30054	-674.30267	-35.78242	1498.58826	-747.34833										-422.49408	1448.84424	-632.99603	-212.05093	1313.79541	-612.15210	-270.69272	1511.03015	-812.83508	-58.22660	1411.53955	-682.51508	-542.53894	1178.53931	-683.61078	53.37479	1253.77026	-703.13672	-473.32831	1030.52490	-508.53055	-66.42606	928.77002	-629.25433	-344.58853	941.10571	-567.97241	-223.77434	957.64368	-861.51001	-35.33028	494.88480	-608.70807	-409.92459	488.87637	-611.39526	-63.41984	160.37787	-909.58276	-378.57285	84.22703	-703.32031	
700	6.990	-117.30950	1688.37720	-679.44025	-34.55434	1498.63013	-753.25385										-421.16699	1449.00525	-638.56482	-209.05501	1315.26855	-614.50330	-269.34140	1510.51453	-817.57983	-56.83799	1411.64209	-686.89240	-540.85651	1177.61353	-690.81213	55.32777	1254.07031	-706.13617	-472.47861	1030.22705	-514.18939	-66.75295	928.53967	-631.91663	-343.82959	941.70996	-569.48676	-222.88486	957.01233	-864.43701	-36.82503	493.72949	-616.95148	-410.31052	489.18155	-611.57892	-61.26757	160.54079	-922.48920	-378.56665	84.22794	-703.31903	
701	7.000	-115.72575	1688.11609	-684.95850	-33.25138	1498.36890	-757.54205										-420.77762	1448.87183	-643.81165	-209.41467	1315.46912	-619.79230	-267.94144	1510.25464	-822.63037	-55.01568	1412.32751	-691.53198	-539.35321	1177.56262	-696.23035	56.89937	1254.55371	-710.20764	-472.68829	1029.99390	-520.50446	-66.03516	929.05957	-634.88879	-343.29495	941.44879	-573.96417	-221.74449	956.62659	-867.86670	-38.36774	491.94260	-625.13263	-410.54532	489.03787	-613.12140	-59.12891	159.33951	-934.24591	-378.59201	84.22972	-703.32556	
702	7.010	-114.09922	1687.95398	-691.07581	-31.82330	1498.13757	-762.51453										-420.06351	1449.23608	-649.19135	-209.28154	1315.18140	-625.54303	-266.23868	1509.73120	-826.85162	-53.29399	1411.75464	-695.52753	-537.74457	1177.65881	-702.71918	58.11150	1254.27344	-713.20197	-471.81863	1029.28870	-526.54260	-65.88943	929.11627	-637.93903	-342.85223	942.31219	-578.63385	-220.73723	956.11615	-871.53876	-39.46418	490.55090	-632.02856	-411.17111	490.28842	-614.14008	-57.27864	157.86812	-945.89032	-378.58801	84.24043	-703.32721	
703	7.020	-112.40493	1687.83801	-696.17084	-30.20579	1497.87427	-767.65771										-419.09091	1448.82629	-654.57538	-205.29158	1315.52148	-627.97180	-264.78644	1509.12280	-832.62445	-52.82202	1411.41467	-699.90717	-536.39551	1178.14209	-709.32404	58.92031	1253.40698	-717.04767	-471.27173	1028.71680	-532.28009	-65.37850	928.97345	-641.05023	-341.92514	942.63654	-582.35455	-219.21956	955.28436	-875.25671	-41.16785	489.07800	-639.82617	-411.92010	490.27231	-615.55359	-55.49442	156.63139	-957.17810	-378.59610	84.24045	-703.32916	
704	7.030	-110.46658	1687.02832	-701.66083	-28.51715	1497.74011	-772.01587										-417.93817	1449.23181	-660.09961	-205.79074	1314.54871	-634.04309	-263.10995	1508.33350	-837.23810	-51.28078	1411.50623	-703.66827	-535.00262	1177.79980	-715.72192	61.08957	1254.16394	-720.93829	-470.77740	1028.32520	-538.73389	-64.60542	928.88379	-644.40881	-340.44675	943.26825	-583.42627	-218.51636	954.99969	-879.11340	-43.01668	487.19183	-648.08942	-412.83954	491.05493	-616.04724	-52.92525	154.35100	-966.54449	-378.62247	84.05835	-703.78314	
705	7.040	-108.55361	1686.71680	-707.14020	-26.77300	1497.14404	-776.66565										-414.76709	1447.64771	-664.75781	-201.21341	1315.64880	-636.09705	-261.32153	1507.89856	-842.38684	-49.92784	1411.45398	-708.75977	-532.81720	1176.61194	-720.43488	63.61174	1254.23938	-724.90393	-468.81842	1028.17639	-545.04297	-63.95822	928.98438	-647.79547	-339.93530	943.66187	-588.79358	-216.93904	954.86755	-883.83313	-45.12703	485.81320	-655.94690	-413.65417	491.13910	-616.81030	-50.83536	151.94295	-976.93439	-378.60791	84.05166	-703.77802	
706	7.050	-106.47970	1686.17590	-712.87921	-24.92140	1496.79431	-781.40778										-414.38916	1447.95996	-670.13782	-200.42923	1315.48682	-640.84814	-259.41739	1507.19141	-847.25323	-47.92534	1411.39685	-713.86230	-531.14954	1176.66602	-726.78021	65.82558	1254.17432	-729.21301	-467.90915	1027.15503	-550.68707	-63.36473	929.23523	-651.16357	-338.74075	944.48334	-592.41504	-215.90292	954.13501	-888.08911	-46.10579	484.29919	-664.36572	-415.02716	491.63089	-618.00031	-48.81956	149.32910	-985.40460	-378.60361	84.05215	-703.77710	
707	7.060	-104.54753	1685.86365	-718.90192	-22.79398	1496.18555	-785.59497										-412.35147	1447.55579	-675.74805	-198.30347	1314.49634	-645.26025	-257.39462	1506.66431	-852.60571	-44.73571	1411.72144	-718.35352	-529.01447	1176.13635	-733.18994	66.94315	1253.26758	-733.69696	-466.07306	1026.14319	-556.85107	-62.40829	928.47919	-654.66772	-338.50290	943.77197	-596.46454	-214.42210	953.27051	-892.36475	-48.54960	482.70816	-672.62994	-416.57022	492.00214	-619.67316	-46.77076	144.56778	-993.48920	-378.11636	83.60719	-703.73743	
708	7.070	-102.14008	1685.15540	-723.35876	-20.79008	1495.97949	-791.32031										-409.93689	1447.08215	-680.97443	-197.99515	1314.23584	-651.85931	-255.14522	1505.99060	-857.49377				-526.53271	1175.93469	-739.39185	69.72245	1253.29187	-737.54504	-465.16858	1025.70288	-562.12964	-61.56489	927.92279	-658.97913	-336.66986	944.14923	-600.57318	-213.41408	952.73956	-897.43817	-48.78040	481.79904	-682.15564	-417.00995	492.41159	-620.17633	-43.91935	140.82645	-1000.59058	-378.12030	83.59485	-703.73541	
709	7.080	-100.12335	1684.96265	-730.44312	-18.36563	1494.97424	-795.69940										-407.74960	1446.66589	-685.85663	-193.90982	1314.80090	-656.25244	-252.99875	1505.24597	-862.92883				-524.57886	1175.40100	-745.38617	71.28569	1252.60095	-741.61499	-463.07327	1025.11719	-568.37256	-59.85233	927.54028	-663.51331	-336.08328	943.19733	-604.67108	-212.19171	952.27209	-902.45721	-50.45767	479.85718	-690.68872	-418.74377	493.77863	-621.66986	-40.90469	135.42133	-1006.58545	-377.96906	83.68540	-703.98199	
710	7.090	-97.64740	1684.03210	-734.61487	-16.20365	1495.04236	-801.35602							-295.98282	1655.74072	-479.91763	-406.56729	1445.67883	-691.67017	-193.34155	1313.99182	-661.50012	-250.55086	1504.55103	-867.53369				-521.79211	1174.37976	-750.97577	73.96680	1253.04639	-746.69989	-461.42932	1024.45203	-573.80823	-59.19459	926.51270	-668.76813	-333.72726	944.04895	-607.34521	-211.09512	951.39929	-907.40668	-51.24902	478.44034	-699.81335	-419.52502	494.01065	-624.66797	-39.97440	128.58919	-1011.86560	-377.95935	83.66607	-703.97498	
711	7.100	-95.20441	1683.43921	-740.06299	-13.68392	1494.34473	-806.18933										-403.53122	1445.41602	-696.81506	-190.18494	1313.69531	-665.49640	-248.07785	1503.87219	-872.88885				-519.26648	1174.00452	-756.49121	77.19157	1252.72974	-751.07471	-458.97336	1023.62177	-579.91382	-56.40380	925.94958	-672.18127	-332.07028	943.58844	-612.41827	-209.46239	950.95642	-913.16602	-53.36509	476.15140	-709.87421	-419.66760	494.72452	-628.50763	-37.29064	121.57995	-1015.09302	-377.97772	83.68886	-703.98492	
